<?xml version="1.0" standalone="no"?>
<svg viewBox="0 0 200 200" xmlns="http://www.w3.org/2000/svg">
  <path fill="#FF0066" d="M29.3,-38.7C41.8,-37.5,58.4,-35.9,70.1,-27C81.9,-18.2,88.9,-2.2,82.1,8.4C75.2,19,54.6,24.3,38.8,22.5C23,20.8,12,12.1,2.7,19.6C-6.7,27.1,-14.3,50.9,-22.9,57.7C-31.5,64.4,-41.1,54.1,-41.8,42.3C-42.6,30.5,-34.5,17.2,-27.5,9.2C-20.6,1.2,-14.7,-1.4,-18,-14.1C-21.3,-26.7,-33.8,-49.4,-32.3,-55.6C-30.9,-61.8,-15.4,-51.5,-3.5,-46.1C8.4,-40.6,16.8,-39.9,29.3,-38.7Z" transform="translate(100 100)" />
</svg>
